<svg xmlns="http://www.w3.org/2000/svg" xmlns:xlink="http://www.w3.org/1999/xlink" width="2000" zoomAndPan="magnify" viewBox="0 0 1500 1499.999933" height="2000" preserveAspectRatio="xMidYMid meet" version="1.0"><defs><g/><clipPath id="e24b0801e2"><path d="M 219 601 L 1242 601 L 1242 1241 L 219 1241 Z M 219 601 " clip-rule="nonzero"/></clipPath><clipPath id="f1c040bf05"><path d="M 767.347656 29.53125 L 1480.640625 742.828125 L 753.03125 1470.441406 L 39.734375 757.144531 Z M 767.347656 29.53125 " clip-rule="nonzero"/></clipPath><clipPath id="18de11d9c6"><path d="M 767.347656 29.53125 L 1480.640625 742.828125 L 753.03125 1470.441406 L 39.734375 757.144531 Z M 767.347656 29.53125 " clip-rule="nonzero"/></clipPath><clipPath id="f3ac53804f"><path d="M 767.347656 29.53125 L 1480.640625 742.828125 L 753.03125 1470.441406 L 39.734375 757.144531 Z M 767.347656 29.53125 " clip-rule="nonzero"/></clipPath><clipPath id="e638d5375b"><path d="M 289 238 L 1320 238 L 1320 891 L 289 891 Z M 289 238 " clip-rule="nonzero"/></clipPath><clipPath id="f24b74ee64"><path d="M 767.347656 29.53125 L 1480.640625 742.828125 L 753.03125 1470.441406 L 39.734375 757.144531 Z M 767.347656 29.53125 " clip-rule="nonzero"/></clipPath><clipPath id="25d9187f62"><path d="M 767.347656 29.53125 L 1480.640625 742.828125 L 753.03125 1470.441406 L 39.734375 757.144531 Z M 767.347656 29.53125 " clip-rule="nonzero"/></clipPath><clipPath id="ade10393a6"><path d="M 767.347656 29.53125 L 1480.640625 742.828125 L 753.03125 1470.441406 L 39.734375 757.144531 Z M 767.347656 29.53125 " clip-rule="nonzero"/></clipPath><clipPath id="659b7b7602"><path d="M 514.15625 595 L 1006 595 L 1006 933 L 514.15625 933 Z M 514.15625 595 " clip-rule="nonzero"/></clipPath></defs><rect x="-150" width="1800" fill="#F6ECE4" y="-149.999993" height="1799.99992" fill-opacity="1"/><rect x="-150" width="1800" fill="#F6ECE4" y="-149.999993" height="1799.99992" fill-opacity="1"/><g clip-path="url(#e24b0801e2)"><g clip-path="url(#f1c040bf05)"><g clip-path="url(#18de11d9c6)"><g clip-path="url(#f3ac53804f)"><path fill="#000000" d="M 307.898438 939.710938 C 307.324219 939.796875 306.617188 939.929688 305.902344 940 C 305.03125 940.15625 304.152344 940.171875 303.273438 940.046875 C 302.398438 939.925781 301.558594 939.667969 300.765625 939.273438 C 299.96875 938.882812 299.253906 938.378906 298.617188 937.757812 C 297.984375 937.136719 297.460938 936.433594 297.050781 935.648438 C 296.832031 935.261719 296.652344 934.863281 296.503906 934.449219 C 296.355469 934.03125 296.242188 933.605469 296.167969 933.171875 C 296.09375 932.734375 296.054688 932.296875 296.054688 931.855469 C 296.054688 931.414062 296.09375 930.976562 296.167969 930.539062 C 296.246094 930.105469 296.355469 929.679688 296.503906 929.265625 C 296.652344 928.847656 296.835938 928.449219 297.050781 928.0625 C 297.269531 927.679688 297.515625 927.316406 297.796875 926.972656 C 298.074219 926.632812 298.382812 926.316406 298.714844 926.027344 C 299.042969 925.777344 299.320312 925.480469 299.539062 925.132812 C 299.761719 924.78125 299.910156 924.40625 299.996094 924.003906 C 300.078125 923.597656 300.089844 923.191406 300.023438 922.785156 C 299.960938 922.375 299.828125 921.992188 299.625 921.632812 C 289.886719 899.382812 283 876.28125 278.96875 852.332031 C 278.082031 847.25 276.597656 842.355469 274.511719 837.640625 C 272.425781 832.925781 269.800781 828.53125 266.636719 824.460938 C 264.363281 821.121094 261.398438 818.589844 257.738281 816.875 C 252.734375 814.585938 248.136719 811.664062 243.941406 808.105469 C 239.746094 804.542969 236.113281 800.480469 233.042969 795.914062 C 227.089844 787.953125 222.644531 779.222656 219.71875 769.722656 C 219.515625 768.234375 219.515625 766.742188 219.714844 765.253906 C 221.097656 765.480469 222.726562 765.316406 223.824219 766 C 231.347656 770.640625 239.269531 774.832031 246.09375 780.363281 C 256.324219 788.660156 261.480469 800.113281 263.332031 813.144531 C 263.820312 815.871094 264.828125 818.394531 266.351562 820.707031 C 268.789062 824.601562 271.695312 828.203125 275.039062 832.804688 C 274.90625 830.769531 274.871094 829.667969 274.753906 828.574219 C 273.492188 816.855469 272.257812 805.140625 270.894531 793.425781 C 270.632812 791.773438 270.136719 790.195312 269.402344 788.691406 C 267.816406 785.140625 265.789062 781.761719 264.484375 778.117188 C 261.609375 770.109375 255.910156 764.925781 249.175781 760.019531 C 244.25 756.167969 240.152344 751.578125 236.882812 746.253906 C 233.441406 741.070312 230.601562 735.570312 228.371094 729.761719 C 226.136719 723.953125 224.566406 717.96875 223.652344 711.8125 C 223.527344 709.804688 223.519531 707.792969 223.632812 705.78125 C 226.929688 707.835938 229.316406 709.140625 231.511719 710.714844 C 244.226562 719.835938 254.972656 730.570312 258.558594 746.5 C 259.355469 751.628906 259.882812 756.789062 260.140625 761.976562 C 260.304688 764.003906 260.785156 765.957031 261.578125 767.832031 C 263.992188 773.039062 266.777344 778.035156 269.933594 782.820312 C 269.664062 775.84375 269.394531 768.871094 269.121094 761.902344 C 268.722656 757.417969 268.582031 752.925781 268.699219 748.425781 C 269.640625 736.109375 264.699219 725.097656 261.203125 713.808594 C 260.441406 711.34375 257.554688 709.496094 255.527344 707.46875 C 251.757812 703.660156 248.519531 699.4375 245.820312 694.808594 C 243.121094 690.175781 241.042969 685.28125 239.585938 680.121094 C 236.65625 671.15625 235.222656 661.957031 235.289062 652.523438 C 235.34375 650.914062 235.738281 649.316406 236.164062 646.433594 C 238.988281 648.867188 241.039062 650.421875 242.84375 652.230469 C 246.558594 655.65625 249.894531 659.421875 252.851562 663.519531 C 255.804688 667.621094 258.320312 671.976562 260.394531 676.582031 C 262.390625 681.445312 263.636719 686.496094 264.136719 691.726562 C 264.636719 696.960938 264.367188 702.152344 263.324219 707.304688 C 262.972656 709.679688 263.121094 712.019531 263.765625 714.332031 C 264.871094 718.679688 266.414062 722.914062 268.03125 728.023438 C 268.28125 727.101562 268.480469 726.164062 268.628906 725.21875 C 269.996094 707.308594 271.449219 689.394531 272.578125 671.464844 C 272.46875 668.6875 271.816406 666.039062 270.621094 663.527344 C 264.265625 646.644531 267.414062 630.929688 276.335938 615.9375 C 279.140625 611.21875 282.265625 606.691406 285.832031 601.164062 C 286.796875 602.707031 287.589844 604.332031 288.207031 606.039062 C 291.25 621.917969 291.015625 637.523438 285.179688 652.917969 C 282.757812 658.820312 279.644531 664.335938 275.84375 669.464844 C 274.492188 672.0625 273.84375 674.824219 273.894531 677.753906 C 272.929688 691.199219 272.167969 704.664062 271.355469 718.121094 C 271.394531 719.070312 271.492188 720.015625 271.644531 720.953125 C 274.269531 715.226562 276.800781 710.394531 278.65625 705.316406 C 279.246094 702.835938 279.339844 700.339844 278.9375 697.820312 C 277.867188 680.640625 285.070312 667 297.046875 655.445312 C 300.347656 652.261719 303.925781 649.363281 307.472656 646.460938 C 308.824219 645.503906 310.246094 644.65625 311.730469 643.914062 L 313.007812 644.402344 C 312.875 648.140625 312.53125 651.859375 311.972656 655.554688 C 308.738281 671.375 302.851562 685.988281 291.207031 697.640625 C 288.5 700.34375 284.859375 702.136719 282.289062 704.925781 C 280.25 707.441406 278.625 710.203125 277.417969 713.207031 C 275.507812 717.269531 273.863281 721.460938 272.234375 725.644531 C 271.675781 727.007812 271.382812 728.421875 271.363281 729.894531 C 271.574219 742.410156 271.851562 754.925781 272.183594 767.4375 C 272.289062 768.261719 272.433594 769.074219 272.617188 769.882812 C 274.800781 766.226562 276.355469 763.199219 278.304688 760.445312 C 279.824219 758.402344 281.011719 756.175781 281.863281 753.773438 C 282.71875 751.371094 283.199219 748.898438 283.3125 746.351562 C 284.023438 730.019531 292.292969 717.664062 304.707031 707.804688 C 308.960938 704.578125 313.375 701.585938 317.949219 698.828125 C 319.339844 698.203125 320.792969 697.789062 322.304688 697.585938 C 322.632812 699.070312 322.71875 700.574219 322.566406 702.085938 C 321.355469 707.042969 319.824219 711.894531 317.976562 716.644531 C 313.355469 727.59375 307.34375 737.742188 298.199219 745.578125 C 294.730469 748.550781 290.613281 750.753906 286.875 753.40625 C 285.230469 754.382812 283.828125 755.632812 282.667969 757.152344 C 279.523438 762.203125 276.636719 767.417969 273.789062 772.644531 C 273.042969 773.921875 272.683594 775.300781 272.710938 776.78125 C 273.785156 789.851562 275.015625 802.925781 276.222656 816 C 276.390625 816.703125 276.613281 817.390625 276.890625 818.058594 C 278.035156 816.53125 278.871094 815.46875 279.652344 814.363281 C 280.355469 813.371094 280.917969 812.273438 281.679688 811.335938 C 284.148438 808.195312 286.140625 804.78125 287.664062 801.089844 C 289.1875 797.398438 290.179688 793.570312 290.644531 789.605469 C 292.707031 776.296875 300.539062 765.953125 311.332031 758.109375 C 316.746094 754.425781 322.335938 751.027344 328.09375 747.910156 C 329.195312 747.511719 330.328125 747.308594 331.496094 747.296875 C 331.640625 748.453125 332.160156 749.710938 331.878906 750.75 C 330.910156 754.484375 329.691406 758.140625 328.222656 761.707031 C 326.75 765.277344 325.046875 768.730469 323.105469 772.070312 C 321.164062 775.40625 319.003906 778.59375 316.625 781.632812 C 314.246094 784.675781 311.671875 787.539062 308.902344 790.226562 C 303.882812 795.085938 298.164062 798.890625 291.742188 801.640625 C 290.441406 802.335938 289.417969 803.316406 288.664062 804.585938 C 285.210938 809.730469 281.796875 814.910156 278.582031 820.203125 C 277.664062 821.660156 277.265625 823.25 277.382812 824.96875 C 281.421875 857.316406 289.433594 888.652344 301.410156 918.972656 C 301.558594 919.601562 301.800781 920.195312 302.140625 920.75 C 302.476562 921.304688 302.890625 921.792969 303.382812 922.214844 C 303.875 922.636719 304.417969 922.972656 305.015625 923.222656 C 305.617188 923.472656 306.238281 923.625 306.882812 923.679688 C 311.796875 924.304688 314.425781 930.003906 312.40625 934.78125 C 311.886719 935.792969 311.632812 936.867188 311.644531 938.003906 C 311.65625 939.144531 311.9375 940.210938 312.480469 941.210938 C 316.171875 948.636719 319.527344 956.230469 323.167969 963.683594 C 323.453125 964.15625 323.832031 964.535156 324.304688 964.824219 C 324.777344 965.109375 325.289062 965.273438 325.839844 965.308594 C 326.441406 965.183594 327.046875 965.113281 327.65625 965.089844 C 328.269531 965.066406 328.878906 965.09375 329.484375 965.175781 C 330.09375 965.253906 330.6875 965.386719 331.273438 965.566406 C 331.859375 965.746094 332.425781 965.976562 332.972656 966.253906 C 333.515625 966.53125 334.035156 966.851562 334.527344 967.214844 C 335.019531 967.578125 335.480469 967.980469 335.902344 968.421875 C 336.328125 968.863281 336.710938 969.339844 337.054688 969.84375 C 337.402344 970.351562 337.699219 970.882812 337.953125 971.441406 C 338.246094 971.964844 338.488281 972.507812 338.683594 973.070312 C 338.878906 973.636719 339.023438 974.214844 339.121094 974.804688 C 339.214844 975.394531 339.257812 975.988281 339.25 976.585938 C 339.242188 977.183594 339.183594 977.773438 339.070312 978.359375 C 338.960938 978.949219 338.800781 979.523438 338.589844 980.082031 C 338.378906 980.640625 338.121094 981.175781 337.816406 981.691406 C 337.511719 982.203125 337.164062 982.6875 336.777344 983.144531 C 336.390625 983.597656 335.964844 984.015625 335.503906 984.394531 C 335.292969 984.671875 335.128906 984.972656 335.011719 985.300781 C 420.574219 1137.421875 588.808594 1240.09375 777.09375 1236 C 881.644531 1233.726562 976.609375 1201.699219 1061.089844 1139.824219 C 1145.484375 1078 1203.699219 996.777344 1238.230469 898.285156 C 1241.304688 898.605469 1242.074219 899.820312 1241 902.882812 C 1231.964844 929.347656 1220.644531 954.796875 1207.035156 979.226562 C 1199.347656 992.730469 1191.460938 1006.148438 1183.035156 1019.199219 C 1177.023438 1028.507812 1169.996094 1037.1875 1163.347656 1046.085938 C 1149.273438 1064.6875 1133.859375 1082.105469 1117.105469 1098.332031 C 1107.320312 1107.917969 1097.113281 1117.144531 1086.453125 1125.738281 C 1073.773438 1135.96875 1060.792969 1145.9375 1047.261719 1154.996094 C 1041.09375 1159.148438 1034.839844 1163.164062 1028.492188 1167.035156 C 1022.148438 1170.910156 1015.71875 1174.640625 1009.207031 1178.230469 C 1002.691406 1181.820312 996.105469 1185.261719 989.4375 1188.554688 C 982.773438 1191.847656 976.039062 1194.996094 969.234375 1197.988281 C 962.425781 1200.984375 955.558594 1203.828125 948.625 1206.515625 C 941.695312 1209.207031 934.707031 1211.738281 927.660156 1214.117188 C 920.617188 1216.496094 913.523438 1218.71875 906.378906 1220.78125 C 899.234375 1222.84375 892.046875 1224.746094 884.820312 1226.488281 C 877.589844 1228.234375 870.328125 1229.8125 863.027344 1231.234375 C 855.730469 1232.65625 848.402344 1233.910156 841.046875 1235.003906 C 833.691406 1236.097656 826.316406 1237.027344 818.917969 1237.792969 C 811.523438 1238.5625 804.113281 1239.160156 796.691406 1239.597656 C 789.265625 1240.035156 781.835938 1240.304688 774.402344 1240.410156 C 766.964844 1240.515625 759.53125 1240.457031 752.097656 1240.230469 C 744.664062 1240.003906 737.242188 1239.613281 729.824219 1239.058594 C 722.410156 1238.503906 715.011719 1237.785156 707.625 1236.898438 C 667.167969 1232.082031 627.90625 1222.398438 589.84375 1207.855469 C 567.199219 1199.527344 545.410156 1189.363281 524.480469 1177.363281 C 513.230469 1170.710938 501.960938 1164.066406 491.042969 1156.890625 C 481.199219 1150.421875 471.554688 1143.574219 462.308594 1136.277344 C 450.628906 1127.066406 439.246094 1117.445312 428.105469 1107.589844 C 419.472656 1099.949219 411.265625 1091.808594 403.136719 1083.636719 C 397.726562 1078.226562 392.601562 1072.558594 387.757812 1066.636719 C 380.308594 1057.464844 373.09375 1048.09375 366.066406 1038.59375 C 358.984375 1029.015625 352.109375 1019.292969 345.4375 1009.421875 C 341.355469 1003.355469 337.898438 996.871094 334.167969 990.566406 C 332.910156 988.4375 331.75 986.851562 328.578125 987.300781 C 327.605469 987.449219 326.632812 987.441406 325.660156 987.277344 C 324.6875 987.117188 323.765625 986.808594 322.890625 986.351562 C 322.015625 985.898438 321.234375 985.316406 320.546875 984.613281 C 319.859375 983.910156 319.296875 983.113281 318.859375 982.230469 C 318.539062 981.746094 318.257812 981.242188 318.019531 980.714844 C 317.78125 980.1875 317.585938 979.640625 317.433594 979.082031 C 317.28125 978.523438 317.171875 977.957031 317.109375 977.378906 C 317.050781 976.800781 317.035156 976.226562 317.0625 975.644531 C 317.09375 975.066406 317.167969 974.496094 317.289062 973.925781 C 317.414062 973.359375 317.578125 972.808594 317.789062 972.265625 C 317.996094 971.726562 318.25 971.207031 318.542969 970.707031 C 318.835938 970.207031 319.164062 969.730469 319.53125 969.285156 C 319.832031 969 320.078125 968.671875 320.265625 968.304688 C 320.453125 967.933594 320.578125 967.546875 320.636719 967.136719 C 320.691406 966.726562 320.679688 966.316406 320.597656 965.910156 C 320.519531 965.503906 320.371094 965.125 320.164062 964.765625 C 316.070312 956.472656 312.023438 948.164062 307.898438 939.710938 Z M 285.722656 606.847656 C 280.003906 620.230469 275.425781 639.617188 273.289062 658.542969 C 272.964844 661.390625 272.25 664.171875 274.335938 666.714844 C 276.824219 663.726562 286.644531 612.761719 285.722656 606.847656 Z M 260.210938 708.769531 C 262.625 701.757812 245.59375 659.8125 237.394531 652.335938 C 238.722656 656.230469 239.648438 659.277344 240.789062 662.238281 C 246.230469 676.335938 251.714844 690.414062 257.25 704.476562 C 258.085938 706.007812 259.074219 707.441406 260.210938 708.769531 Z M 257.546875 763.410156 C 258.46875 755.507812 233.878906 715.859375 226.21875 712.007812 C 226.535156 712.851562 226.894531 713.679688 227.300781 714.484375 C 236.125 729.554688 244.976562 744.609375 253.851562 759.644531 C 254.949219 761.03125 256.183594 762.285156 257.546875 763.410156 Z M 328.335938 751.816406 C 327.078125 752.757812 326.207031 753.316406 325.4375 753.996094 C 312.464844 765.394531 302.640625 779.414062 292.78125 793.398438 C 292.042969 794.957031 291.535156 796.59375 291.257812 798.296875 C 295.28125 797.101562 326.523438 757.539062 328.335938 751.816406 Z M 280.941406 701.621094 L 282.855469 702.355469 C 291.867188 684.609375 302.378906 667.652344 310.050781 649.179688 C 306.996094 652.152344 304.34375 655.449219 302.097656 659.074219 C 295.167969 671.351562 288.5 683.769531 281.878906 696.234375 C 281.289062 697.980469 280.976562 699.777344 280.941406 701.621094 Z M 284.605469 750.015625 C 289.109375 749.300781 318.972656 706.464844 319.046875 702.191406 C 317.820312 703.417969 316.800781 704.4375 315.785156 705.453125 C 304.347656 716.71875 295.9375 730.238281 287.417969 743.664062 C 286.316406 745.707031 285.378906 747.828125 284.605469 750.015625 Z M 260.730469 815.457031 C 260.914062 808.15625 231.085938 773.144531 222.960938 770.421875 C 223.121094 770.90625 223.332031 771.367188 223.59375 771.800781 C 234.738281 785.574219 245.878906 799.351562 257.09375 813.070312 C 258.199219 814.027344 259.414062 814.824219 260.734375 815.453125 Z M 260.730469 815.457031 " fill-opacity="1" fill-rule="nonzero"/></g></g></g></g><g clip-path="url(#e638d5375b)"><g clip-path="url(#f24b74ee64)"><g clip-path="url(#25d9187f62)"><g clip-path="url(#ade10393a6)"><path fill="#000000" d="M 1252 890.136719 C 1248.53125 885.058594 1248.394531 880.476562 1248.050781 876.109375 C 1246.917969 861.878906 1248.09375 847.890625 1254.195312 834.773438 C 1256.390625 830.738281 1258.808594 826.847656 1261.453125 823.09375 C 1262.4375 821.875 1263.121094 820.507812 1263.5 818.984375 C 1264.722656 803.972656 1265.777344 788.949219 1266.859375 773.925781 C 1266.894531 773.257812 1266.71875 772.652344 1266.339844 772.105469 C 1263.183594 779.210938 1258.316406 785.464844 1259.109375 794.140625 C 1260.367188 807.949219 1255.351562 820.035156 1246.246094 830.179688 C 1241.089844 835.488281 1235.652344 840.492188 1229.9375 845.191406 C 1228.503906 846.183594 1226.992188 847.039062 1225.402344 847.75 C 1225.15625 845.917969 1225.058594 844.074219 1225.113281 842.222656 C 1227.144531 826.542969 1231.738281 811.785156 1242.238281 799.589844 C 1246.292969 794.878906 1251.515625 791.195312 1255.800781 786.640625 C 1257.886719 784.144531 1259.554688 781.394531 1260.808594 778.390625 C 1262.746094 774.339844 1264.378906 770.140625 1266.023438 765.957031 C 1266.601562 764.605469 1266.914062 763.195312 1266.957031 761.722656 C 1266.835938 749.570312 1266.644531 737.417969 1266.382812 725.265625 C 1266.324219 724.347656 1266.03125 723.511719 1265.5 722.761719 C 1261.757812 730.0625 1255.339844 735.769531 1255.082031 744.964844 C 1254.667969 759.375 1248.003906 771.132812 1237.199219 780.34375 C 1231.589844 784.792969 1225.753906 788.921875 1219.691406 792.726562 C 1218.507812 793.238281 1217.273438 793.535156 1215.984375 793.613281 C 1215.792969 792.359375 1215.207031 791.011719 1215.472656 789.863281 C 1217.066406 782.332031 1219.640625 775.152344 1223.191406 768.324219 C 1226.742188 761.492188 1231.140625 755.265625 1236.390625 749.636719 C 1241.203125 744.578125 1246.730469 740.488281 1252.980469 737.375 C 1254.113281 736.65625 1255.023438 735.71875 1255.71875 734.570312 C 1256.839844 732.988281 1257.777344 731.269531 1258.746094 729.585938 C 1266.261719 716.5625 1266.289062 716.558594 1265.035156 701.519531 C 1264.378906 693.644531 1263.609375 685.78125 1262.847656 677.914062 C 1262.726562 676.417969 1262.1875 675.09375 1261.226562 673.9375 C 1259.09375 677.128906 1257.179688 680.5 1254.785156 683.46875 C 1253.046875 685.578125 1251.65625 687.890625 1250.609375 690.414062 C 1249.5625 692.9375 1248.910156 695.558594 1248.648438 698.277344 C 1248.371094 701.167969 1247.816406 704 1246.988281 706.78125 C 1246.160156 709.5625 1245.070312 712.238281 1243.71875 714.804688 C 1242.367188 717.371094 1240.78125 719.785156 1238.957031 722.042969 C 1237.136719 724.300781 1235.113281 726.363281 1232.886719 728.226562 C 1226.183594 733.890625 1218.375 738.289062 1210.949219 743.089844 C 1209.894531 743.777344 1208.257812 743.570312 1206.890625 743.773438 C 1206.667969 742.386719 1206.652344 740.992188 1206.839844 739.597656 C 1207.980469 735.339844 1209.457031 731.199219 1211.261719 727.175781 C 1213.070312 723.152344 1215.183594 719.296875 1217.609375 715.613281 C 1220.03125 711.929688 1222.734375 708.460938 1225.714844 705.210938 C 1228.691406 701.960938 1231.910156 698.964844 1235.371094 696.230469 C 1238.214844 694.015625 1241.707031 692.648438 1244.726562 690.628906 C 1247.070312 689.242188 1249.125 687.511719 1250.894531 685.4375 C 1254.132812 681.027344 1257.132812 676.460938 1259.886719 671.730469 C 1260.949219 670.078125 1261.433594 668.273438 1261.347656 666.3125 C 1257.492188 634.160156 1249.707031 602.988281 1237.988281 572.796875 C 1237.832031 572.132812 1237.582031 571.507812 1237.238281 570.917969 C 1236.890625 570.328125 1236.464844 569.804688 1235.960938 569.347656 C 1235.457031 568.886719 1234.898438 568.511719 1234.277344 568.222656 C 1233.660156 567.933594 1233.011719 567.746094 1232.335938 567.652344 C 1231.765625 567.539062 1231.210938 567.363281 1230.675781 567.121094 C 1230.144531 566.882812 1229.644531 566.585938 1229.179688 566.230469 C 1228.714844 565.878906 1228.292969 565.476562 1227.921875 565.027344 C 1227.546875 564.578125 1227.226562 564.089844 1226.964844 563.570312 C 1226.703125 563.046875 1226.5 562.503906 1226.363281 561.933594 C 1226.222656 561.367188 1226.148438 560.789062 1226.140625 560.207031 C 1226.132812 559.621094 1226.191406 559.042969 1226.316406 558.472656 C 1226.441406 557.902344 1226.628906 557.351562 1226.878906 556.824219 C 1227.386719 555.726562 1227.632812 554.574219 1227.621094 553.367188 C 1227.605469 552.160156 1227.332031 551.015625 1226.796875 549.929688 C 1223.25 542.003906 1219.800781 534.03125 1216.269531 526.09375 C 1216.117188 525.675781 1215.902344 525.289062 1215.628906 524.9375 C 1215.355469 524.582031 1215.039062 524.28125 1214.671875 524.023438 C 1214.304688 523.769531 1213.910156 523.574219 1213.480469 523.441406 C 1213.054688 523.308594 1212.621094 523.242188 1212.171875 523.242188 C 1211.71875 523.207031 1211.269531 523.140625 1210.824219 523.050781 C 1210.378906 522.957031 1209.941406 522.835938 1209.511719 522.6875 C 1209.082031 522.542969 1208.660156 522.367188 1208.25 522.167969 C 1207.84375 521.96875 1207.449219 521.742188 1207.066406 521.496094 C 1206.6875 521.246094 1206.324219 520.972656 1205.976562 520.679688 C 1205.628906 520.382812 1205.300781 520.066406 1204.992188 519.734375 C 1204.6875 519.398438 1204.402344 519.042969 1204.136719 518.671875 C 1203.875 518.300781 1203.636719 517.914062 1203.421875 517.511719 C 1203.207031 517.113281 1203.015625 516.699219 1202.851562 516.273438 C 1202.691406 515.847656 1202.554688 515.417969 1202.445312 514.972656 C 1202.335938 514.53125 1202.253906 514.085938 1202.199219 513.632812 C 1202.148438 513.179688 1202.121094 512.726562 1202.125 512.273438 C 1202.128906 511.816406 1202.160156 511.363281 1202.222656 510.914062 C 1202.28125 510.460938 1202.367188 510.015625 1202.484375 509.578125 C 1202.601562 509.136719 1202.742188 508.707031 1202.914062 508.285156 C 1203.082031 507.859375 1203.277344 507.449219 1203.5 507.054688 C 1203.804688 506.585938 1204.03125 506.085938 1204.179688 505.546875 C 1204.332031 505.011719 1204.398438 504.464844 1204.378906 503.90625 C 1204.359375 503.351562 1204.253906 502.808594 1204.070312 502.285156 C 1203.882812 501.757812 1203.621094 501.273438 1203.285156 500.828125 C 1194.492188 486.867188 1186.335938 472.492188 1177.1875 458.773438 C 1169.695312 447.496094 1161.605469 436.667969 1152.914062 426.285156 C 1140.515625 411.53125 1127.742188 397.039062 1114.34375 383.199219 C 1104.652344 373.476562 1094.441406 364.335938 1083.710938 355.777344 C 1073.828125 347.664062 1063.28125 340.359375 1053.023438 332.707031 C 1035.089844 319.597656 1016.226562 308.011719 996.425781 297.945312 C 963.785156 280.898438 929.652344 267.695312 894.035156 258.34375 C 867.984375 251.523438 841.558594 246.796875 814.757812 244.171875 C 787.632812 241.449219 760.472656 241.007812 733.277344 242.84375 C 705.394531 244.710938 677.867188 248.90625 650.691406 255.425781 C 623.519531 261.945312 597.085938 270.699219 571.390625 281.679688 C 552.378906 289.605469 534.050781 298.882812 516.40625 309.507812 C 504.835938 316.613281 493.210938 323.65625 481.945312 331.226562 C 474.257812 336.390625 467.242188 342.546875 459.761719 348.035156 C 436.449219 365.132812 416.546875 385.90625 396.691406 406.683594 C 389.367188 414.351562 383.078125 423.023438 376.464844 431.355469 C 370.617188 438.714844 364.746094 446.074219 359.316406 453.738281 C 354.320312 460.792969 349.703125 468.136719 345.257812 475.554688 C 339.027344 485.953125 332.96875 496.457031 327.082031 507.066406 C 317.289062 525.066406 308.855469 543.683594 301.785156 562.917969 C 298.976562 570.359375 296.285156 577.847656 293.84375 585.414062 C 293.023438 587.945312 292.03125 587.75 289.875 586.574219 C 292.625 578.632812 294.886719 570.585938 298.164062 562.960938 C 306.332031 543.949219 314.429688 524.871094 323.59375 506.335938 C 329.960938 493.457031 337.914062 481.339844 345.433594 469.054688 C 350.328125 461.058594 355.546875 453.242188 360.949219 445.582031 C 365.050781 439.78125 369.804688 434.441406 374.066406 428.746094 C 389.039062 409.285156 405.554688 391.238281 423.621094 374.605469 C 433.890625 364.894531 444.941406 355.992188 455.851562 346.980469 C 463.289062 340.835938 470.964844 334.964844 478.773438 329.304688 C 485.386719 324.507812 492.203125 319.941406 499.191406 315.703125 C 509.050781 309.726562 519.097656 304.050781 529.15625 298.410156 C 548.796875 287.570312 569.132812 278.234375 590.160156 270.410156 C 601.683594 266.0625 613.351562 262.148438 625.164062 258.660156 C 636.976562 255.171875 648.902344 252.125 660.9375 249.519531 C 672.976562 246.910156 685.09375 244.746094 697.289062 243.03125 C 709.488281 241.316406 721.730469 240.054688 734.019531 239.242188 C 746.3125 238.429688 758.613281 238.070312 770.929688 238.164062 C 783.25 238.257812 795.546875 238.804688 807.824219 239.804688 C 820.097656 240.804688 832.324219 242.257812 844.492188 244.15625 C 856.664062 246.058594 868.75 248.40625 880.746094 251.195312 C 913.023438 258.515625 944.167969 269.152344 974.183594 283.105469 C 990.171875 290.628906 1005.808594 298.976562 1021.195312 307.671875 C 1033.234375 314.472656 1044.835938 322.101562 1056.273438 329.890625 C 1064.335938 335.382812 1071.78125 341.789062 1079.539062 347.742188 C 1097.929688 361.925781 1115.042969 377.507812 1130.886719 394.492188 C 1140.316406 404.554688 1148.949219 415.367188 1157.816406 425.953125 C 1162.546875 431.601562 1167.226562 437.320312 1171.535156 443.289062 C 1177.109375 451.007812 1182.457031 458.882812 1187.585938 466.910156 C 1193.234375 475.730469 1198.53125 484.773438 1203.960938 493.730469 C 1204.457031 494.550781 1204.804688 495.457031 1205.253906 496.304688 C 1206.945312 499.472656 1208.25 502.320312 1213.222656 501.304688 C 1217.777344 500.382812 1221.308594 503.667969 1223.191406 507.78125 C 1223.445312 508.253906 1223.660156 508.742188 1223.835938 509.25 C 1224.007812 509.757812 1224.136719 510.277344 1224.226562 510.808594 C 1224.3125 511.335938 1224.351562 511.871094 1224.347656 512.40625 C 1224.347656 512.941406 1224.296875 513.472656 1224.203125 514.003906 C 1224.113281 514.53125 1223.976562 515.046875 1223.796875 515.550781 C 1223.613281 516.058594 1223.394531 516.542969 1223.132812 517.011719 C 1222.871094 517.480469 1222.570312 517.921875 1222.234375 518.339844 C 1221.898438 518.757812 1221.527344 519.144531 1221.128906 519.5 C 1218.988281 521.464844 1219.140625 522.9375 1220.328125 525.417969 C 1224.070312 533.246094 1227.359375 541.285156 1231.003906 549.167969 C 1231.339844 549.71875 1231.777344 550.171875 1232.316406 550.527344 C 1232.855469 550.878906 1233.445312 551.101562 1234.085938 551.195312 C 1234.9375 551.160156 1235.78125 551.246094 1236.609375 551.453125 C 1237.4375 551.660156 1238.222656 551.980469 1238.957031 552.414062 C 1239.695312 552.84375 1240.355469 553.371094 1240.941406 553.992188 C 1241.527344 554.617188 1242.015625 555.308594 1242.402344 556.070312 C 1244.195312 559.703125 1242.835938 562.742188 1240.519531 565.421875 C 1240.203125 565.695312 1239.945312 566.011719 1239.738281 566.375 C 1239.53125 566.734375 1239.394531 567.121094 1239.316406 567.53125 C 1239.242188 567.941406 1239.238281 568.351562 1239.304688 568.761719 C 1239.371094 569.171875 1239.5 569.558594 1239.699219 569.925781 C 1249.671875 592.664062 1255.867188 616.554688 1260.324219 640.859375 C 1260.96875 644.992188 1262.089844 648.996094 1263.6875 652.863281 C 1265.285156 656.730469 1267.3125 660.355469 1269.773438 663.738281 C 1273.335938 668.507812 1276.558594 673.039062 1282.496094 675.605469 C 1292.28125 679.839844 1299.671875 687.308594 1305.753906 696.042969 C 1311.742188 704.144531 1316.15625 713.03125 1318.992188 722.699219 C 1319.113281 723.972656 1319.035156 725.230469 1318.761719 726.480469 C 1317.710938 726.535156 1316.679688 726.425781 1315.667969 726.144531 C 1301.15625 719.292969 1287.675781 711.066406 1280.71875 695.710938 C 1278.300781 690.371094 1277.304688 684.390625 1275.484375 678.761719 C 1274.632812 675.78125 1273.460938 672.9375 1271.972656 670.222656 C 1269.765625 666.628906 1267.121094 663.394531 1264.035156 660.519531 C 1264.09375 661.777344 1264.089844 663.035156 1264.214844 664.285156 C 1265.363281 675.652344 1266.5 687.019531 1267.742188 698.378906 C 1267.972656 699.925781 1268.4375 701.402344 1269.128906 702.804688 C 1270.875 706.683594 1272.875 710.453125 1274.542969 714.363281 C 1275.714844 717.480469 1277.335938 720.34375 1279.40625 722.953125 C 1281.476562 725.5625 1283.898438 727.792969 1286.667969 729.640625 C 1290.738281 732.460938 1294.359375 735.773438 1297.527344 739.578125 C 1300.691406 743.386719 1303.292969 747.546875 1305.324219 752.0625 C 1310.070312 760.941406 1313.152344 770.363281 1314.566406 780.328125 C 1314.519531 781.828125 1314.265625 783.292969 1313.804688 784.722656 C 1312.402344 784.464844 1311.085938 783.980469 1309.855469 783.265625 C 1302.996094 777.316406 1295.628906 771.777344 1289.652344 765.023438 C 1281.109375 755.371094 1277.992188 743.414062 1278.179688 730.523438 C 1278.105469 727.757812 1277.480469 725.125 1276.296875 722.621094 C 1274.207031 717.839844 1271.65625 713.316406 1268.648438 709.054688 C 1268.886719 715.933594 1269.128906 722.816406 1269.371094 729.703125 C 1269.742188 734.429688 1269.863281 739.164062 1269.726562 743.90625 C 1268.835938 755.976562 1273.777344 766.75 1277.058594 777.855469 C 1277.757812 780.222656 1280.570312 782.007812 1282.519531 783.957031 C 1286.332031 787.828125 1289.597656 792.113281 1292.316406 796.816406 C 1295.035156 801.523438 1297.113281 806.492188 1298.558594 811.730469 C 1301.527344 820.953125 1302.878906 830.410156 1302.609375 840.09375 C 1302.386719 841.371094 1302.007812 842.601562 1301.480469 843.785156 C 1300.242188 843.476562 1299.089844 842.972656 1298.027344 842.269531 C 1286.472656 831.15625 1276.226562 819.144531 1274.464844 802.363281 C 1273.9375 796.683594 1274.085938 791.015625 1274.898438 785.367188 C 1275.46875 781.988281 1275.1875 778.675781 1274.054688 775.441406 C 1272.957031 771.933594 1271.625 768.515625 1270.0625 765.191406 C 1269.921875 766.050781 1269.714844 766.902344 1269.644531 767.769531 C 1268.21875 785.070312 1266.691406 802.367188 1265.515625 819.6875 C 1265.585938 822.601562 1266.226562 825.386719 1267.433594 828.042969 C 1273.535156 844.609375 1270.492188 860.089844 1261.921875 874.851562 C 1259.03125 879.820312 1255.660156 884.511719 1252 890.136719 Z M 1252.1875 884.574219 C 1253.949219 880.382812 1255.449219 876.101562 1256.691406 871.726562 C 1259.6875 858.042969 1262.386719 844.296875 1265.019531 830.539062 C 1265.035156 828.554688 1264.761719 826.609375 1264.191406 824.703125 C 1261.132812 827.769531 1251.046875 878.660156 1252.179688 884.566406 Z M 1253.585938 740.636719 C 1249.25 742.421875 1219.765625 784.292969 1219.058594 788.804688 C 1219.695312 788.378906 1220.304688 787.917969 1220.890625 787.425781 C 1233.675781 775.234375 1242.949219 760.390625 1252.339844 745.644531 C 1252.988281 744.03125 1253.402344 742.363281 1253.585938 740.636719 Z M 1257.257812 789.675781 C 1253.144531 791.65625 1228.035156 837.8125 1228.203125 842.554688 C 1230.953125 839.34375 1233.488281 835.96875 1235.808594 832.433594 C 1242.78125 820.238281 1249.507812 807.894531 1256.167969 795.523438 C 1256.8125 793.625 1257.175781 791.675781 1257.257812 789.671875 Z M 1281.117188 728.839844 C 1279.675781 735.53125 1303.292969 774.308594 1311.613281 779.339844 C 1311.5 778.714844 1311.324219 778.105469 1311.082031 777.515625 C 1302.21875 762.21875 1293.355469 746.914062 1284.382812 731.667969 C 1283.4375 730.5625 1282.347656 729.617188 1281.117188 728.839844 Z M 1300.21875 839.34375 C 1300.066406 838.320312 1299.851562 837.304688 1299.582031 836.304688 C 1293.378906 819.890625 1287.152344 803.484375 1280.898438 787.089844 C 1280.132812 785.710938 1279.210938 784.445312 1278.136719 783.289062 C 1275.511719 789.414062 1291.347656 829.308594 1300.21875 839.34375 Z M 1247.496094 693.1875 C 1243.023438 694.492188 1211.398438 734.589844 1210.710938 738.925781 C 1211.601562 738.246094 1212.390625 737.703125 1213.117188 737.082031 C 1226.199219 725.917969 1235.890625 711.898438 1245.8125 698.082031 C 1246.578125 696.523438 1247.140625 694.890625 1247.496094 693.1875 Z M 1315.320312 720.78125 C 1314.503906 719.605469 1313.753906 718.382812 1312.859375 717.269531 C 1302.527344 704.417969 1292.195312 691.570312 1281.785156 678.78125 C 1280.710938 677.8125 1279.53125 677 1278.242188 676.34375 C 1277.320312 682.585938 1305.507812 716.550781 1315.320312 720.78125 Z M 1315.320312 720.78125 " fill-opacity="1" fill-rule="nonzero"/></g></g></g></g><g clip-path="url(#659b7b7602)"><path fill="#060606" d="M 789.867188 923.691406 C 800.320312 924.90625 810.238281 924.441406 820.070312 923.03125 C 873.683594 915.339844 917.09375 889.054688 952.847656 849.285156 C 972.921875 826.960938 987.621094 801.464844 995.820312 772.421875 C 997.425781 766.734375 998.585938 760.953125 999.601562 755.128906 C 999.945312 753.171875 999.417969 752.699219 997.613281 752.414062 C 982.53125 750.042969 967.417969 750.175781 952.339844 752.082031 C 920 756.164062 889.671875 766.40625 861.378906 782.601562 C 847.328125 790.644531 834.335938 800.105469 822.941406 811.683594 C 821.335938 813.3125 820.59375 815.03125 820.335938 817.308594 C 816.628906 849.722656 807.375 880.140625 787.671875 906.707031 C 781.078125 915.59375 773.566406 923.625 764.628906 930.242188 C 760.605469 933.226562 759.613281 933.28125 755.660156 930.261719 C 737.421875 916.3125 724.769531 898.089844 715.507812 877.351562 C 706.863281 857.988281 702.027344 837.601562 699.84375 816.558594 C 699.65625 814.738281 698.949219 813.386719 697.703125 812.109375 C 682.046875 796.085938 663.53125 784.175781 643.492188 774.492188 C 620.859375 763.554688 597.085938 756.214844 572.210938 752.632812 C 555.738281 750.261719 539.207031 749.820312 522.683594 752.414062 C 520.941406 752.6875 520.316406 753.058594 520.644531 755.085938 C 525.472656 784.804688 537.902344 811.21875 555.855469 835.085938 C 582.367188 870.335938 616.085938 896.296875 657.335938 912.207031 C 677.378906 919.9375 698.140625 924.25 719.699219 924.332031 C 721.308594 924.339844 722.921875 924.277344 724.535156 924.191406 C 726.304688 924.09375 728.070312 923.933594 730.394531 923.761719 C 729.25 922.34375 728.382812 921.175781 727.421875 920.085938 C 716.03125 907.125 703.183594 895.671875 690.207031 884.375 C 661.078125 859.019531 630.898438 834.972656 599.28125 812.769531 C 592.472656 807.992188 585.589844 803.308594 578.371094 799.144531 C 575.78125 797.652344 574.992188 795.9375 576.039062 794.238281 C 577.058594 792.59375 579.03125 792.488281 581.460938 794.03125 C 599.785156 805.632812 617.304688 818.367188 634.503906 831.550781 C 662.53125 853.035156 689.738281 875.5 715.433594 899.75 C 722.472656 906.390625 729.4375 913.125 735.355469 920.820312 C 736.785156 922.675781 738.984375 924.535156 737.863281 927.210938 C 736.722656 929.941406 733.882812 929.144531 731.679688 929.3125 C 692.035156 932.34375 655.847656 921.324219 622.066406 901.542969 C 582.300781 878.261719 551.460938 846.332031 530.773438 804.941406 C 522.921875 789.226562 517.679688 772.664062 515.011719 755.296875 C 514.890625 754.5 514.835938 753.691406 514.789062 752.886719 C 514.5625 748.957031 515.140625 748.144531 518.945312 747.398438 C 532.054688 744.820312 545.304688 744.511719 558.554688 745.527344 C 593.035156 748.167969 625.386719 758.164062 655.835938 774.410156 C 670.667969 782.320312 684.445312 791.769531 696.765625 803.265625 C 697.246094 803.714844 697.609375 804.441406 698.671875 804.390625 C 698.671875 803.351562 698.746094 802.316406 698.660156 801.296875 C 698.214844 796.109375 697.96875 790.886719 698.363281 785.71875 C 698.761719 780.460938 697.234375 776.070312 694.667969 771.5625 C 683.078125 751.1875 671.101562 731.054688 658.425781 711.335938 C 657.945312 710.589844 657.4375 709.816406 657.183594 708.980469 C 656.8125 707.753906 657.25 706.660156 658.351562 705.960938 C 659.46875 705.261719 660.613281 705.386719 661.5625 706.277344 C 662.136719 706.816406 662.59375 707.5 663.03125 708.167969 C 675.128906 726.5625 686.304688 745.519531 697.21875 764.628906 C 697.648438 765.382812 698.082031 766.136719 698.890625 767.550781 C 699.40625 762.617188 699.832031 758.417969 700.289062 754.21875 C 702.988281 729.394531 708.621094 705.222656 716.597656 681.582031 C 726.480469 652.304688 739.679688 624.601562 756.210938 598.492188 C 758.859375 594.308594 761.40625 594.300781 764.035156 598.476562 C 790.8125 641.074219 809.015625 687 817.554688 736.652344 C 819.179688 746.09375 820.394531 755.597656 821.011719 765.171875 C 821.042969 765.695312 821.125 766.214844 821.214844 767 C 822.292969 766.375 822.566406 765.441406 823.003906 764.671875 C 833.914062 745.558594 845.097656 726.609375 857.191406 708.210938 C 857.628906 707.542969 858.078125 706.851562 858.648438 706.304688 C 859.585938 705.410156 860.738281 705.246094 861.851562 705.9375 C 863.058594 706.683594 863.496094 707.859375 863.007812 709.1875 C 862.671875 710.097656 862.117188 710.933594 861.585938 711.757812 C 848.179688 732.496094 835.585938 753.722656 823.558594 775.289062 C 822.386719 777.386719 821.816406 779.457031 821.886719 781.894531 C 822.066406 788.25 822.125 794.617188 821.609375 800.96875 C 821.515625 802.089844 821.59375 803.222656 821.59375 804.300781 C 822.285156 804.574219 822.5625 804.136719 822.859375 803.855469 C 844.6875 783.507812 870.292969 769.519531 898.136719 759.386719 C 921.9375 750.722656 946.460938 745.605469 971.84375 745.09375 C 981.800781 744.890625 991.71875 745.460938 1001.515625 747.4375 C 1005.003906 748.140625 1005.792969 748.996094 1005.457031 752.558594 C 1004.589844 761.679688 1002.457031 770.550781 999.71875 779.269531 C 990.195312 809.554688 973.640625 835.671875 952.039062 858.667969 C 925.847656 886.542969 894.835938 907.226562 858.625 919.835938 C 838.324219 926.90625 817.417969 930.480469 795.867188 929.816406 C 792.644531 929.714844 789.425781 929.433594 786.214844 929.167969 C 782 928.824219 780.910156 926.636719 783.289062 923.039062 C 786.667969 917.933594 790.90625 913.535156 795.1875 909.199219 C 811.832031 892.355469 829.714844 876.867188 847.914062 861.75 C 875 839.257812 902.800781 817.703125 932.207031 798.28125 C 934.59375 796.703125 937.011719 795.167969 939.433594 793.644531 C 941.144531 792.574219 942.945312 792.355469 944.136719 794.226562 C 945.355469 796.136719 944.304688 797.65625 942.605469 798.714844 C 901.441406 824.390625 864.070312 855.039062 827.464844 886.671875 C 815.398438 897.097656 803.589844 907.839844 793.039062 919.855469 C 792.039062 920.988281 791.113281 922.179688 789.867188 923.691406 Z M 762.40625 924.6875 C 763.269531 924.058594 763.636719 923.8125 763.976562 923.535156 C 773.949219 915.4375 782.109375 905.746094 788.960938 894.933594 C 804.164062 870.921875 811.6875 844.335938 814.832031 816.375 C 818.03125 787.941406 816.242188 759.683594 810.921875 731.632812 C 803.046875 690.136719 788.296875 651.179688 767.179688 614.621094 C 764.964844 610.785156 762.648438 607.007812 760.367188 603.1875 C 759.949219 603.457031 759.769531 603.515625 759.679688 603.640625 C 759.367188 604.078125 759.078125 604.53125 758.796875 604.988281 C 726.417969 658.308594 706.757812 715.648438 704.136719 778.34375 C 702.988281 805.761719 705.929688 832.699219 714.472656 858.871094 C 721.707031 881.042969 732.722656 901.019531 749.496094 917.515625 C 751.679688 919.664062 753.871094 921.84375 756.84375 923.773438 C 756.84375 922.292969 756.84375 921.246094 756.84375 920.199219 C 756.84375 843.59375 756.84375 766.988281 756.847656 690.382812 C 756.847656 689.308594 756.792969 688.210938 756.992188 687.167969 C 757.289062 685.65625 758.351562 684.84375 759.902344 684.976562 C 761.3125 685.09375 762.207031 685.945312 762.328125 687.394531 C 762.425781 688.550781 762.40625 689.71875 762.40625 690.882812 C 762.40625 767.578125 762.40625 844.273438 762.40625 920.96875 C 762.40625 922.019531 762.40625 923.070312 762.40625 924.6875 Z M 616.015625 741.628906 C 616.609375 744.96875 617.394531 748.28125 618.253906 751.5625 C 618.695312 753.261719 619.847656 754.492188 621.808594 754.007812 C 623.785156 753.519531 624.082031 751.96875 623.726562 750.199219 C 623.621094 749.671875 623.507812 749.148438 623.367188 748.628906 C 621.152344 740.464844 620.125 732.125 619.886719 723.699219 C 619.277344 701.992188 622.988281 680.957031 630.085938 660.484375 C 631.804688 655.523438 631.871094 655.351562 637.070312 656.355469 C 660.832031 660.945312 683 669.667969 703.59375 682.382812 C 704.734375 683.085938 705.753906 684.003906 706.945312 684.597656 C 708.246094 685.246094 709.632812 685.140625 710.546875 683.835938 C 711.433594 682.566406 711.210938 681.238281 710.109375 680.191406 C 709.273438 679.394531 708.320312 678.710938 707.355469 678.066406 C 695.308594 670.015625 682.132812 664.289062 668.605469 659.300781 C 657.34375 655.148438 645.933594 651.5625 633.898438 650.402344 C 629.082031 649.9375 627.625 650.683594 626.15625 654.632812 C 618.46875 675.277344 614.273438 696.570312 614.203125 721.664062 C 614.09375 726.359375 614.671875 734.027344 616.015625 741.628906 Z M 904.8125 698.480469 C 902.996094 683.136719 899.246094 668.265625 893.804688 653.808594 C 892.839844 651.242188 891.027344 650.152344 888.429688 650.316406 C 886.019531 650.46875 883.601562 650.65625 881.222656 651.050781 C 865.230469 653.710938 850.1875 659.363281 835.445312 665.875 C 826.933594 669.632812 818.636719 673.835938 811.078125 679.335938 C 809.492188 680.492188 808.382812 682.007812 809.773438 683.875 C 811.050781 685.589844 812.765625 685.113281 814.296875 684.035156 C 826.914062 675.15625 840.976562 669.199219 855.351562 663.953125 C 864.925781 660.460938 874.675781 657.511719 884.84375 656.117188 C 887.660156 655.730469 888.851562 656.511719 889.8125 659.261719 C 894.34375 672.226562 897.527344 685.5 899.214844 699.109375 C 900.871094 712.488281 901.109375 725.894531 898.828125 739.246094 C 898.199219 742.941406 897.285156 746.585938 896.507812 750.257812 C 896.15625 751.925781 896.476562 753.410156 898.242188 753.960938 C 900.132812 754.554688 901.3125 753.472656 901.933594 751.757812 C 902.238281 750.921875 902.429688 750.039062 902.644531 749.171875 C 905.117188 739.214844 906.140625 729.089844 905.992188 718.605469 C 906.121094 712.027344 905.613281 705.242188 904.8125 698.480469 Z M 904.8125 698.480469 " fill-opacity="1" fill-rule="nonzero"/><path fill="#060606" d="M 789.867188 923.691406 C 800.320312 924.90625 810.238281 924.441406 820.070312 923.03125 C 873.683594 915.339844 917.09375 889.054688 952.847656 849.285156 C 972.921875 826.960938 987.621094 801.464844 995.820312 772.421875 C 997.425781 766.734375 998.585938 760.953125 999.601562 755.128906 C 999.945312 753.171875 999.417969 752.699219 997.613281 752.414062 C 982.53125 750.042969 967.417969 750.175781 952.339844 752.082031 C 920 756.164062 889.671875 766.40625 861.378906 782.601562 C 847.328125 790.644531 834.335938 800.105469 822.941406 811.683594 C 821.335938 813.3125 820.59375 815.03125 820.335938 817.308594 C 816.628906 849.722656 807.375 880.140625 787.671875 906.707031 C 781.078125 915.59375 773.566406 923.625 764.628906 930.242188 C 760.605469 933.226562 759.613281 933.28125 755.660156 930.261719 C 737.421875 916.3125 724.769531 898.089844 715.507812 877.351562 C 706.863281 857.988281 702.027344 837.601562 699.84375 816.558594 C 699.65625 814.738281 698.949219 813.386719 697.703125 812.109375 C 682.046875 796.085938 663.53125 784.175781 643.492188 774.492188 C 620.859375 763.554688 597.085938 756.214844 572.210938 752.632812 C 555.738281 750.261719 539.207031 749.820312 522.683594 752.414062 C 520.941406 752.6875 520.316406 753.058594 520.644531 755.085938 C 525.472656 784.804688 537.902344 811.21875 555.855469 835.085938 C 582.367188 870.335938 616.085938 896.296875 657.335938 912.207031 C 677.378906 919.9375 698.140625 924.25 719.699219 924.332031 C 721.308594 924.339844 722.921875 924.277344 724.535156 924.191406 C 726.304688 924.09375 728.070312 923.933594 730.394531 923.761719 C 729.25 922.34375 728.382812 921.175781 727.421875 920.085938 C 716.03125 907.125 703.183594 895.671875 690.207031 884.375 C 661.078125 859.019531 630.898438 834.972656 599.28125 812.769531 C 592.472656 807.992188 585.589844 803.308594 578.371094 799.144531 C 575.78125 797.652344 574.992188 795.9375 576.039062 794.238281 C 577.058594 792.59375 579.03125 792.488281 581.460938 794.03125 C 599.785156 805.632812 617.304688 818.367188 634.503906 831.550781 C 662.53125 853.035156 689.738281 875.5 715.433594 899.75 C 722.472656 906.390625 729.4375 913.125 735.355469 920.820312 C 736.785156 922.675781 738.984375 924.535156 737.863281 927.210938 C 736.722656 929.941406 733.882812 929.144531 731.679688 929.3125 C 692.035156 932.34375 655.847656 921.324219 622.066406 901.542969 C 582.300781 878.261719 551.460938 846.332031 530.773438 804.941406 C 522.921875 789.226562 517.679688 772.664062 515.011719 755.296875 C 514.890625 754.5 514.835938 753.691406 514.789062 752.886719 C 514.5625 748.957031 515.140625 748.144531 518.945312 747.398438 C 532.054688 744.820312 545.304688 744.511719 558.554688 745.527344 C 593.035156 748.167969 625.386719 758.164062 655.835938 774.410156 C 670.667969 782.320312 684.445312 791.769531 696.765625 803.265625 C 697.246094 803.714844 697.609375 804.441406 698.671875 804.390625 C 698.671875 803.351562 698.746094 802.316406 698.660156 801.296875 C 698.214844 796.109375 697.96875 790.886719 698.363281 785.71875 C 698.761719 780.460938 697.234375 776.070312 694.667969 771.5625 C 683.078125 751.1875 671.101562 731.054688 658.425781 711.335938 C 657.945312 710.589844 657.4375 709.816406 657.183594 708.980469 C 656.8125 707.753906 657.25 706.660156 658.351562 705.960938 C 659.46875 705.261719 660.613281 705.386719 661.5625 706.277344 C 662.136719 706.816406 662.59375 707.5 663.03125 708.167969 C 675.128906 726.5625 686.304688 745.519531 697.21875 764.628906 C 697.648438 765.382812 698.082031 766.136719 698.890625 767.550781 C 699.40625 762.617188 699.832031 758.417969 700.289062 754.21875 C 702.988281 729.394531 708.621094 705.222656 716.597656 681.582031 C 726.480469 652.304688 739.679688 624.601562 756.210938 598.492188 C 758.859375 594.308594 761.40625 594.300781 764.035156 598.476562 C 790.8125 641.074219 809.015625 687 817.554688 736.652344 C 819.179688 746.09375 820.394531 755.597656 821.011719 765.171875 C 821.042969 765.695312 821.125 766.214844 821.214844 767 C 822.292969 766.375 822.566406 765.441406 823.003906 764.671875 C 833.914062 745.558594 845.097656 726.609375 857.191406 708.210938 C 857.628906 707.542969 858.078125 706.851562 858.648438 706.304688 C 859.585938 705.410156 860.738281 705.246094 861.851562 705.9375 C 863.058594 706.683594 863.496094 707.859375 863.007812 709.1875 C 862.671875 710.097656 862.117188 710.933594 861.585938 711.757812 C 848.179688 732.496094 835.585938 753.722656 823.558594 775.289062 C 822.386719 777.386719 821.816406 779.457031 821.886719 781.894531 C 822.066406 788.25 822.125 794.617188 821.609375 800.96875 C 821.515625 802.089844 821.59375 803.222656 821.59375 804.300781 C 822.285156 804.574219 822.5625 804.136719 822.859375 803.855469 C 844.6875 783.507812 870.292969 769.519531 898.136719 759.386719 C 921.9375 750.722656 946.460938 745.605469 971.84375 745.09375 C 981.800781 744.890625 991.71875 745.460938 1001.515625 747.4375 C 1005.003906 748.140625 1005.792969 748.996094 1005.457031 752.558594 C 1004.589844 761.679688 1002.457031 770.550781 999.71875 779.269531 C 990.195312 809.554688 973.640625 835.671875 952.039062 858.667969 C 925.847656 886.542969 894.835938 907.226562 858.625 919.835938 C 838.324219 926.90625 817.417969 930.480469 795.867188 929.816406 C 792.644531 929.714844 789.425781 929.433594 786.214844 929.167969 C 782 928.824219 780.910156 926.636719 783.289062 923.039062 C 786.667969 917.933594 790.90625 913.535156 795.1875 909.199219 C 811.832031 892.355469 829.714844 876.867188 847.914062 861.75 C 875 839.257812 902.800781 817.703125 932.207031 798.28125 C 934.59375 796.703125 937.011719 795.167969 939.433594 793.644531 C 941.144531 792.574219 942.945312 792.355469 944.136719 794.226562 C 945.355469 796.136719 944.304688 797.65625 942.605469 798.714844 C 901.441406 824.390625 864.070312 855.039062 827.464844 886.671875 C 815.398438 897.097656 803.589844 907.839844 793.039062 919.855469 C 792.039062 920.988281 791.113281 922.179688 789.867188 923.691406 Z M 762.40625 924.6875 C 763.269531 924.058594 763.636719 923.8125 763.976562 923.535156 C 773.949219 915.4375 782.109375 905.746094 788.960938 894.933594 C 804.164062 870.921875 811.6875 844.335938 814.832031 816.375 C 818.03125 787.941406 816.242188 759.683594 810.921875 731.632812 C 803.046875 690.136719 788.296875 651.179688 767.179688 614.621094 C 764.964844 610.785156 762.648438 607.007812 760.367188 603.1875 C 759.949219 603.457031 759.769531 603.515625 759.679688 603.640625 C 759.367188 604.078125 759.078125 604.53125 758.796875 604.988281 C 726.417969 658.308594 706.757812 715.648438 704.136719 778.34375 C 702.988281 805.761719 705.929688 832.699219 714.472656 858.871094 C 721.707031 881.042969 732.722656 901.019531 749.496094 917.515625 C 751.679688 919.664062 753.871094 921.84375 756.84375 923.773438 C 756.84375 922.292969 756.84375 921.246094 756.84375 920.199219 C 756.84375 843.59375 756.84375 766.988281 756.847656 690.382812 C 756.847656 689.308594 756.792969 688.210938 756.992188 687.167969 C 757.289062 685.65625 758.351562 684.84375 759.902344 684.976562 C 761.3125 685.09375 762.207031 685.945312 762.328125 687.394531 C 762.425781 688.550781 762.40625 689.71875 762.40625 690.882812 C 762.40625 767.578125 762.40625 844.273438 762.40625 920.96875 C 762.40625 922.019531 762.40625 923.070312 762.40625 924.6875 Z M 616.015625 741.628906 C 616.609375 744.96875 617.394531 748.28125 618.253906 751.5625 C 618.695312 753.261719 619.847656 754.492188 621.808594 754.007812 C 623.785156 753.519531 624.082031 751.96875 623.726562 750.199219 C 623.621094 749.671875 623.507812 749.148438 623.367188 748.628906 C 621.152344 740.464844 620.125 732.125 619.886719 723.699219 C 619.277344 701.992188 622.988281 680.957031 630.085938 660.484375 C 631.804688 655.523438 631.871094 655.351562 637.070312 656.355469 C 660.832031 660.945312 683 669.667969 703.59375 682.382812 C 704.734375 683.085938 705.753906 684.003906 706.945312 684.597656 C 708.246094 685.246094 709.632812 685.140625 710.546875 683.835938 C 711.433594 682.566406 711.210938 681.238281 710.109375 680.191406 C 709.273438 679.394531 708.320312 678.710938 707.355469 678.066406 C 695.308594 670.015625 682.132812 664.289062 668.605469 659.300781 C 657.34375 655.148438 645.933594 651.5625 633.898438 650.402344 C 629.082031 649.9375 627.625 650.683594 626.15625 654.632812 C 618.46875 675.277344 614.273438 696.570312 614.203125 721.664062 C 614.09375 726.359375 614.671875 734.027344 616.015625 741.628906 Z M 904.8125 698.480469 C 902.996094 683.136719 899.246094 668.265625 893.804688 653.808594 C 892.839844 651.242188 891.027344 650.152344 888.429688 650.316406 C 886.019531 650.46875 883.601562 650.65625 881.222656 651.050781 C 865.230469 653.710938 850.1875 659.363281 835.445312 665.875 C 826.933594 669.632812 818.636719 673.835938 811.078125 679.335938 C 809.492188 680.492188 808.382812 682.007812 809.773438 683.875 C 811.050781 685.589844 812.765625 685.113281 814.296875 684.035156 C 826.914062 675.15625 840.976562 669.199219 855.351562 663.953125 C 864.925781 660.460938 874.675781 657.511719 884.84375 656.117188 C 887.660156 655.730469 888.851562 656.511719 889.8125 659.261719 C 894.34375 672.226562 897.527344 685.5 899.214844 699.109375 C 900.871094 712.488281 901.109375 725.894531 898.828125 739.246094 C 898.199219 742.941406 897.285156 746.585938 896.507812 750.257812 C 896.15625 751.925781 896.476562 753.410156 898.242188 753.960938 C 900.132812 754.554688 901.3125 753.472656 901.933594 751.757812 C 902.238281 750.921875 902.429688 750.039062 902.644531 749.171875 C 905.117188 739.214844 906.140625 729.089844 905.992188 718.605469 C 906.121094 712.027344 905.613281 705.242188 904.8125 698.480469 Z M 904.8125 698.480469 " fill-opacity="1" fill-rule="nonzero"/></g><g fill="#000000" fill-opacity="1"><g transform="translate(430.117339, 595.60452)"><g><path d="M 2.484375 -3.90625 L -1.421875 -6.390625 C 0.222656 -9.109375 1.382812 -11.378906 2.0625 -13.203125 C 2.75 -15.023438 2.953125 -16.628906 2.671875 -18.015625 C 2.390625 -19.398438 1.59375 -20.726562 0.28125 -22 C -1.03125 -23.269531 -2.882812 -24.664062 -5.28125 -26.1875 L -53.171875 -56.703125 C -55.566406 -58.234375 -57.578125 -59.347656 -59.203125 -60.046875 C -60.828125 -60.753906 -62.296875 -61.019531 -63.609375 -60.84375 C -64.929688 -60.664062 -66.179688 -59.988281 -67.359375 -58.8125 C -68.546875 -57.644531 -69.90625 -56.007812 -71.4375 -53.90625 L -75.34375 -56.390625 L -55.75 -87.140625 C -49.851562 -96.390625 -43.625 -102.53125 -37.0625 -105.5625 C -30.5 -108.601562 -24.242188 -108.226562 -18.296875 -104.4375 C -13.765625 -101.550781 -10.96875 -97.769531 -9.90625 -93.09375 C -8.84375 -88.414062 -9.347656 -82.40625 -11.421875 -75.0625 L -11.015625 -74.796875 C -9.453125 -76.785156 -8.03125 -78.484375 -6.75 -79.890625 C -5.46875 -81.296875 -4.242188 -82.492188 -3.078125 -83.484375 C -1.921875 -84.484375 -0.734375 -85.332031 0.484375 -86.03125 C 1.710938 -86.738281 2.992188 -87.390625 4.328125 -87.984375 C 12.546875 -91.347656 19.90625 -90.953125 26.40625 -86.796875 C 30.039062 -84.484375 32.769531 -81.320312 34.59375 -77.3125 C 36.414062 -73.300781 37.066406 -68.914062 36.546875 -64.15625 C 36.421875 -62.582031 36.148438 -61.0625 35.734375 -59.59375 C 35.328125 -58.125 34.722656 -56.488281 33.921875 -54.6875 C 33.117188 -52.882812 32.078125 -50.875 30.796875 -48.65625 C 29.523438 -46.4375 27.945312 -43.851562 26.0625 -40.90625 Z M 21.84375 -44.03125 C 29.75 -56.4375 28.394531 -66.023438 17.78125 -72.796875 C 10.03125 -77.734375 2.582031 -77.988281 -4.5625 -73.5625 C -5.726562 -72.769531 -6.8125 -71.96875 -7.8125 -71.15625 C -8.8125 -70.351562 -9.832031 -69.320312 -10.875 -68.0625 C -11.925781 -66.800781 -13.085938 -65.25 -14.359375 -63.40625 C -15.628906 -61.570312 -17.140625 -59.285156 -18.890625 -56.546875 L -21.84375 -51.921875 L 1.078125 -37.3125 C 5.253906 -34.65625 8.953125 -33.84375 12.171875 -34.875 C 15.390625 -35.90625 18.613281 -38.957031 21.84375 -44.03125 Z M -23.296875 -60.9375 C -21.941406 -63.0625 -20.84375 -64.867188 -20 -66.359375 C -19.15625 -67.847656 -18.488281 -69.160156 -18 -70.296875 C -17.519531 -71.429688 -17.179688 -72.488281 -16.984375 -73.46875 C -16.796875 -74.457031 -16.707031 -75.535156 -16.71875 -76.703125 C -16.695312 -79.765625 -17.347656 -82.367188 -18.671875 -84.515625 C -20.003906 -86.671875 -22.210938 -88.726562 -25.296875 -90.6875 C -30.710938 -94.132812 -35.441406 -95.289062 -39.484375 -94.15625 C -43.523438 -93.019531 -47.332031 -89.648438 -50.90625 -84.046875 L -55.953125 -76.125 C -56.703125 -74.957031 -56.5 -74.007812 -55.34375 -73.28125 L -26.96875 -55.1875 Z M -23.296875 -60.9375 "/></g></g></g><g fill="#000000" fill-opacity="1"><g transform="translate(479.080699, 518.047827)"><g><path d="M 11 -106.078125 C 15.425781 -101.316406 17.671875 -96.03125 17.734375 -90.21875 C 17.804688 -84.414062 15.21875 -78.078125 9.96875 -71.203125 L 51.71875 -65.734375 C 55.164062 -65.253906 58.253906 -65.476562 60.984375 -66.40625 C 63.722656 -67.34375 66.628906 -68.84375 69.703125 -70.90625 L 72.84375 -67.515625 L 55.609375 -51.53125 L 7.6875 -59.296875 C 5.96875 -59.597656 4.488281 -59.726562 3.25 -59.6875 C 2.019531 -59.644531 0.878906 -59.441406 -0.171875 -59.078125 C -1.222656 -58.722656 -2.28125 -58.128906 -3.34375 -57.296875 C -4.40625 -56.472656 -5.625 -55.429688 -7 -54.171875 L 10.21875 -35.578125 C 12.269531 -33.367188 14.078125 -31.6875 15.640625 -30.53125 C 17.210938 -29.375 18.785156 -28.8125 20.359375 -28.84375 C 21.941406 -28.875 23.675781 -29.507812 25.5625 -30.75 C 27.457031 -32 29.75 -33.867188 32.4375 -36.359375 L 35.578125 -32.96875 L 4.015625 -3.734375 L 0.875 -7.125 C 2.90625 -9.113281 4.421875 -10.847656 5.421875 -12.328125 C 6.421875 -13.816406 6.945312 -15.25 7 -16.625 C 7.0625 -18.007812 6.601562 -19.46875 5.625 -21 C 4.644531 -22.539062 3.191406 -24.351562 1.265625 -26.4375 L -37.328125 -68.078125 C -39.265625 -70.160156 -40.929688 -71.742188 -42.328125 -72.828125 C -43.734375 -73.921875 -45.09375 -74.550781 -46.40625 -74.71875 C -47.71875 -74.894531 -49.09375 -74.5625 -50.53125 -73.71875 C -51.96875 -72.882812 -53.695312 -71.644531 -55.71875 -70 L -58.875 -73.390625 L -30.8125 -99.390625 C -22.582031 -107.015625 -14.804688 -111.390625 -7.484375 -112.515625 C -0.171875 -113.640625 5.988281 -111.492188 11 -106.078125 Z M -11.140625 -58.640625 L -4.78125 -64.515625 C 1.175781 -70.035156 4.585938 -75.21875 5.453125 -80.0625 C 6.328125 -84.914062 4.441406 -89.851562 -0.203125 -94.875 C -4.671875 -99.6875 -9.015625 -102.070312 -13.234375 -102.03125 C -17.460938 -102 -22.019531 -99.71875 -26.90625 -95.1875 L -35.125 -87.578125 C -36.144531 -86.640625 -36.1875 -85.664062 -35.25 -84.65625 Z M -11.140625 -58.640625 "/></g></g></g><g fill="#000000" fill-opacity="1"><g transform="translate(548.516007, 454.061649)"><g><path d="M 3.234375 -60.421875 C 7.085938 -62.515625 10.191406 -64.5 12.546875 -66.375 C 14.910156 -68.257812 16.585938 -70.117188 17.578125 -71.953125 C 18.566406 -73.785156 18.972656 -75.671875 18.796875 -77.609375 C 18.617188 -79.546875 17.945312 -81.585938 16.78125 -83.734375 L 20.53125 -85.765625 L 36.40625 -56.53125 L 32.65625 -54.5 C 31.5 -56.644531 30.191406 -58.335938 28.734375 -59.578125 C 27.273438 -60.816406 25.492188 -61.535156 23.390625 -61.734375 C 21.296875 -61.929688 18.800781 -61.59375 15.90625 -60.71875 C 13.007812 -59.84375 9.5625 -58.316406 5.5625 -56.140625 L 18.703125 -31.9375 C 19.984375 -29.582031 21.328125 -27.789062 22.734375 -26.5625 C 24.140625 -25.34375 25.800781 -24.628906 27.71875 -24.421875 C 29.632812 -24.210938 31.835938 -24.53125 34.328125 -25.375 C 36.828125 -26.21875 39.757812 -27.550781 43.125 -29.375 C 46.90625 -31.425781 49.96875 -33.4375 52.3125 -35.40625 C 54.664062 -37.382812 56.382812 -39.5 57.46875 -41.75 C 58.5625 -44.007812 59.070312 -46.484375 59 -49.171875 C 58.925781 -51.859375 58.390625 -54.972656 57.390625 -58.515625 L 61.46875 -60.734375 L 71.328125 -38.75 L 4.8125 -2.625 L 2.609375 -6.6875 C 5.066406 -8.113281 6.96875 -9.421875 8.3125 -10.609375 C 9.65625 -11.804688 10.519531 -13.066406 10.90625 -14.390625 C 11.300781 -15.710938 11.210938 -17.234375 10.640625 -18.953125 C 10.066406 -20.679688 9.101562 -22.796875 7.75 -25.296875 L -19.359375 -75.1875 C -20.710938 -77.6875 -21.929688 -79.640625 -23.015625 -81.046875 C -24.097656 -82.453125 -25.253906 -83.394531 -26.484375 -83.875 C -27.722656 -84.363281 -29.140625 -84.378906 -30.734375 -83.921875 C -32.335938 -83.460938 -34.328125 -82.6875 -36.703125 -81.59375 L -38.90625 -85.671875 L 22.984375 -119.296875 L 34.203125 -100.96875 L 30.453125 -98.921875 C 28.472656 -101.546875 26.503906 -103.503906 24.546875 -104.796875 C 22.597656 -106.097656 20.492188 -106.828125 18.234375 -106.984375 C 15.972656 -107.148438 13.441406 -106.75 10.640625 -105.78125 C 7.835938 -104.8125 4.613281 -103.335938 0.96875 -101.359375 L -12.625 -93.984375 C -13.84375 -93.316406 -14.125 -92.375 -13.46875 -91.15625 Z M 3.234375 -60.421875 "/></g></g></g><g fill="#000000" fill-opacity="1"><g transform="translate(623.713962, 411.268952)"><g><path d="M 82.625 -18.140625 L 8.828125 -79.1875 L 8.359375 -79.078125 L 20.25 -28.40625 C 21.175781 -24.445312 22.046875 -21.351562 22.859375 -19.125 C 23.679688 -16.90625 24.65625 -15.257812 25.78125 -14.1875 C 26.90625 -13.113281 28.285156 -12.5625 29.921875 -12.53125 C 31.566406 -12.5 33.65625 -12.738281 36.1875 -13.25 L 37.25 -8.75 L 5.34375 -1.25 L 4.28125 -5.75 C 7.03125 -6.488281 9.203125 -7.273438 10.796875 -8.109375 C 12.398438 -8.941406 13.535156 -10.0625 14.203125 -11.46875 C 14.878906 -12.875 15.117188 -14.703125 14.921875 -16.953125 C 14.722656 -19.203125 14.1875 -22.1875 13.3125 -25.90625 L 2.015625 -74.078125 C 1.234375 -77.398438 0.445312 -80.117188 -0.34375 -82.234375 C -1.132812 -84.347656 -2.085938 -85.941406 -3.203125 -87.015625 C -4.328125 -88.085938 -5.738281 -88.691406 -7.4375 -88.828125 C -9.144531 -88.960938 -11.285156 -88.816406 -13.859375 -88.390625 L -14.921875 -92.890625 L 8.5625 -98.40625 L 76.671875 -41.40625 L 77.140625 -41.515625 L 66.15625 -88.265625 C 65.25 -92.140625 64.382812 -95.210938 63.5625 -97.484375 C 62.738281 -99.753906 61.757812 -101.421875 60.625 -102.484375 C 59.5 -103.554688 58.117188 -104.109375 56.484375 -104.140625 C 54.859375 -104.179688 52.765625 -103.945312 50.203125 -103.4375 L 49.140625 -107.9375 L 81.0625 -115.421875 L 82.125 -110.921875 C 79.375 -110.191406 77.195312 -109.40625 75.59375 -108.5625 C 74 -107.726562 72.867188 -106.609375 72.203125 -105.203125 C 71.535156 -103.804688 71.300781 -101.957031 71.5 -99.65625 C 71.695312 -97.363281 72.222656 -94.398438 73.078125 -90.765625 L 89.734375 -19.8125 Z M 82.625 -18.140625 "/></g></g></g><g fill="#000000" fill-opacity="1"><g transform="translate(727.743387, 386.55507)"><g><path d="M 4.609375 0.28125 L 4.890625 -4.328125 C 7.984375 -4.222656 10.492188 -4.296875 12.421875 -4.546875 C 14.347656 -4.796875 15.867188 -5.394531 16.984375 -6.34375 C 18.097656 -7.300781 18.890625 -8.640625 19.359375 -10.359375 C 19.835938 -12.085938 20.160156 -14.414062 20.328125 -17.34375 L 23.75 -74.015625 C 23.925781 -76.859375 23.925781 -79.160156 23.75 -80.921875 C 23.570312 -82.679688 23.085938 -84.09375 22.296875 -85.15625 C 21.503906 -86.226562 20.304688 -86.992188 18.703125 -87.453125 C 17.109375 -87.921875 15.015625 -88.316406 12.421875 -88.640625 L 12.703125 -93.25 L 55.40625 -90.671875 C 62.707031 -90.234375 69.390625 -88.609375 75.453125 -85.796875 C 81.515625 -82.992188 86.660156 -79.304688 90.890625 -74.734375 C 95.128906 -70.160156 98.328125 -64.835938 100.484375 -58.765625 C 102.640625 -52.691406 103.507812 -46.171875 103.09375 -39.203125 C 102.6875 -32.546875 101.140625 -26.507812 98.453125 -21.09375 C 95.773438 -15.6875 92.1875 -11.125 87.6875 -7.40625 C 83.195312 -3.6875 77.921875 -0.894531 71.859375 0.96875 C 65.804688 2.84375 59.25 3.570312 52.1875 3.15625 Z M 39.359375 -85.65625 C 37.972656 -85.738281 37.238281 -85.085938 37.15625 -83.703125 L 33.1875 -17.890625 C 32.625 -8.640625 38.390625 -3.648438 50.484375 -2.921875 C 61.585938 -2.253906 70.300781 -5.050781 76.625 -11.3125 C 82.945312 -17.570312 86.492188 -27.109375 87.265625 -39.921875 C 87.671875 -46.648438 87.222656 -52.695312 85.921875 -58.0625 C 84.617188 -63.425781 82.554688 -68.023438 79.734375 -71.859375 C 76.910156 -75.691406 73.40625 -78.710938 69.21875 -80.921875 C 65.039062 -83.128906 60.238281 -84.398438 54.8125 -84.734375 Z M 39.359375 -85.65625 "/></g></g></g><g fill="#000000" fill-opacity="1"><g transform="translate(832.755877, 393.351641)"><g><path d="M 98.8125 -40.15625 C 96.6875 -34.019531 93.078125 -29.554688 87.984375 -26.765625 C 82.890625 -23.972656 76.066406 -23.28125 67.515625 -24.6875 L 82.34375 14.75 C 83.53125 18.007812 85.175781 20.625 87.28125 22.59375 C 89.394531 24.570312 92.085938 26.429688 95.359375 28.171875 L 93.84375 32.546875 L 71.625 24.84375 L 55.96875 -21.09375 C 55.40625 -22.75 54.816406 -24.113281 54.203125 -25.1875 C 53.585938 -26.257812 52.875 -27.171875 52.0625 -27.921875 C 51.257812 -28.679688 50.238281 -29.335938 49 -29.890625 C 47.769531 -30.453125 46.273438 -31.035156 44.515625 -31.640625 L 36.203125 -7.6875 C 35.222656 -4.84375 34.585938 -2.457031 34.296875 -0.53125 C 34.015625 1.382812 34.257812 3.03125 35.03125 4.40625 C 35.800781 5.789062 37.179688 7.019531 39.171875 8.09375 C 41.160156 9.175781 43.882812 10.316406 47.34375 11.515625 L 45.828125 15.890625 L 5.1875 1.796875 L 6.703125 -2.578125 C 9.421875 -1.710938 11.664062 -1.1875 13.4375 -1 C 15.21875 -0.820312 16.726562 -1.03125 17.96875 -1.625 C 19.21875 -2.226562 20.285156 -3.320312 21.171875 -4.90625 C 22.066406 -6.5 22.984375 -8.632812 23.921875 -11.3125 L 42.53125 -64.96875 C 43.457031 -67.65625 44.070312 -69.867188 44.375 -71.609375 C 44.675781 -73.359375 44.59375 -74.847656 44.125 -76.078125 C 43.65625 -77.316406 42.710938 -78.375 41.296875 -79.25 C 39.878906 -80.125 37.96875 -81.070312 35.5625 -82.09375 L 37.078125 -86.453125 L 73.234375 -73.921875 C 83.835938 -70.242188 91.359375 -65.441406 95.796875 -59.515625 C 100.234375 -53.585938 101.238281 -47.132812 98.8125 -40.15625 Z M 46.515625 -37.390625 L 54.6875 -34.5625 C 62.363281 -31.894531 68.546875 -31.316406 73.234375 -32.828125 C 77.929688 -34.335938 81.398438 -38.320312 83.640625 -44.78125 C 85.796875 -50.988281 85.863281 -55.945312 83.84375 -59.65625 C 81.820312 -63.375 77.660156 -66.328125 71.359375 -68.515625 L 60.78125 -72.1875 C 59.46875 -72.632812 58.585938 -72.207031 58.140625 -70.90625 Z M 46.515625 -37.390625 "/></g></g></g><g fill="#000000" fill-opacity="1"><g transform="translate(922.688298, 426.995081)"><g><path d="M 39.015625 -3.59375 C 36.929688 -0.101562 35.425781 2.734375 34.5 4.921875 C 33.570312 7.117188 33.175781 9.015625 33.3125 10.609375 C 33.457031 12.210938 34.175781 13.632812 35.46875 14.875 C 36.757812 16.113281 38.601562 17.5 41 19.03125 L 38.640625 23 L 4.71875 2.796875 L 7.078125 -1.171875 C 9.554688 0.210938 11.660156 1.15625 13.390625 1.65625 C 15.117188 2.164062 16.71875 2.148438 18.1875 1.609375 C 19.65625 1.066406 21.097656 -0.0820312 22.515625 -1.84375 C 23.929688 -3.601562 25.617188 -6.125 27.578125 -9.40625 L 52.875 -51.921875 C 54.625 -54.859375 55.945312 -57.359375 56.84375 -59.421875 C 57.738281 -61.492188 58.15625 -63.300781 58.09375 -64.84375 C 58.03125 -66.394531 57.4375 -67.8125 56.3125 -69.09375 C 55.1875 -70.382812 53.546875 -71.769531 51.390625 -73.25 L 53.75 -77.21875 L 85.578125 -58.265625 L 83.21875 -54.296875 C 80.945312 -55.554688 78.984375 -56.347656 77.328125 -56.671875 C 75.671875 -56.992188 74.132812 -56.796875 72.71875 -56.078125 C 71.300781 -55.359375 69.867188 -54.054688 68.421875 -52.171875 C 66.972656 -50.296875 65.3125 -47.789062 63.4375 -44.65625 Z M 39.015625 -3.59375 "/></g></g></g><g fill="#000000" fill-opacity="1"><g transform="translate(967.678676, 450.98361)"><g><path d="M 125.296875 -12.46875 L 127.828125 -10.15625 L 109.6875 11.25 L 106.359375 8.1875 C 109.878906 1.726562 111.125 -4.726562 110.09375 -11.1875 C 109.0625 -17.644531 105.882812 -23.316406 100.5625 -28.203125 C 96.90625 -31.554688 92.976562 -33.832031 88.78125 -35.03125 C 84.59375 -36.226562 80.273438 -36.378906 75.828125 -35.484375 C 71.378906 -34.597656 66.847656 -32.691406 62.234375 -29.765625 C 57.617188 -26.835938 53.054688 -22.914062 48.546875 -18 C 39.722656 -8.351562 34.941406 0.894531 34.203125 9.75 C 33.460938 18.613281 36.898438 26.53125 44.515625 33.5 C 56.066406 44.09375 69.117188 44.757812 83.671875 35.5 L 87.359375 38.875 L 66.859375 61.25 L 63.703125 58.375 L 68.140625 49.390625 C 56.972656 48.960938 46.925781 44.660156 38 36.484375 C 32.90625 31.816406 29.046875 26.789062 26.421875 21.40625 C 23.804688 16.03125 22.398438 10.523438 22.203125 4.890625 C 22.015625 -0.734375 23.078125 -6.398438 25.390625 -12.109375 C 27.703125 -17.816406 31.242188 -23.28125 36.015625 -28.5 C 41.003906 -33.9375 46.394531 -38.132812 52.1875 -41.09375 C 57.988281 -44.050781 63.882812 -45.757812 69.875 -46.21875 C 75.863281 -46.6875 81.78125 -45.867188 87.625 -43.765625 C 93.46875 -41.671875 98.929688 -38.289062 104.015625 -33.625 C 107.617188 -30.332031 110.539062 -26.71875 112.78125 -22.78125 C 115.019531 -18.851562 116.953125 -14.046875 118.578125 -8.359375 Z M 125.296875 -12.46875 "/></g></g></g><g fill="#000000" fill-opacity="1"><g transform="translate(1038.364653, 515.648709)"><g><path d="M 33.390625 16.25 C 30.796875 17.90625 28.757812 19.394531 27.28125 20.71875 C 25.8125 22.039062 24.898438 23.398438 24.546875 24.796875 C 24.191406 26.191406 24.316406 27.703125 24.921875 29.328125 C 25.523438 30.960938 26.59375 32.976562 28.125 35.375 L 24.234375 37.875 L 2.953125 4.625 L 6.84375 2.125 C 8.375 4.519531 9.765625 6.351562 11.015625 7.625 C 12.273438 8.894531 13.59375 9.664062 14.96875 9.9375 C 16.351562 10.21875 17.90625 10 19.625 9.28125 C 21.34375 8.570312 23.398438 7.453125 25.796875 5.921875 L 73.625 -24.6875 C 76.226562 -26.351562 78.203125 -27.832031 79.546875 -29.125 C 80.890625 -30.414062 81.71875 -31.71875 82.03125 -33.03125 C 82.34375 -34.34375 82.203125 -35.722656 81.609375 -37.171875 C 81.023438 -38.628906 80.078125 -40.382812 78.765625 -42.4375 L 82.65625 -44.9375 L 102.625 -13.71875 L 98.734375 -11.21875 C 97.421875 -13.28125 96.207031 -14.867188 95.09375 -15.984375 C 93.988281 -17.109375 92.738281 -17.78125 91.34375 -18 C 89.945312 -18.226562 88.359375 -17.960938 86.578125 -17.203125 C 84.796875 -16.453125 82.539062 -15.203125 79.8125 -13.453125 L 54.4375 2.78125 L 101.765625 8.6875 C 104.347656 8.945312 106.117188 8.773438 107.078125 8.171875 C 109.003906 6.941406 108.71875 4.375 106.21875 0.46875 L 110.109375 -2.03125 L 125.9375 22.71875 L 122.140625 25.15625 C 121.265625 23.789062 120.410156 22.644531 119.578125 21.71875 C 118.753906 20.800781 117.75 20.019531 116.5625 19.375 C 115.382812 18.738281 113.929688 18.195312 112.203125 17.75 C 110.484375 17.3125 108.34375 16.90625 105.78125 16.53125 L 71.15625 11.46875 L 54.296875 64.515625 C 53.410156 67.492188 53.050781 69.984375 53.21875 71.984375 C 53.394531 73.992188 54.296875 76.269531 55.921875 78.8125 L 52.03125 81.3125 L 31.859375 49.796875 L 35.75 47.296875 C 37.457031 49.960938 38.90625 51.734375 40.09375 52.609375 C 41.28125 53.492188 42.351562 53.628906 43.3125 53.015625 C 43.851562 52.660156 44.460938 51.878906 45.140625 50.671875 C 45.828125 49.472656 46.53125 47.78125 47.25 45.59375 L 59.078125 9.796875 L 46.34375 7.96875 Z M 33.390625 16.25 "/></g></g></g><g fill="#000000" fill-opacity="1"><g transform="translate(526.599542, 1134.539637)"><g><path d="M 44.96875 -66.109375 C 44.71875 -68.535156 44.382812 -70.578125 43.96875 -72.234375 C 43.550781 -73.890625 43.007812 -75.3125 42.34375 -76.5 C 41.675781 -77.695312 40.847656 -78.675781 39.859375 -79.4375 C 38.867188 -80.195312 37.59375 -80.925781 36.03125 -81.625 L 37.921875 -85.84375 L 72.9375 -70.09375 L 71.046875 -65.875 C 67.347656 -67.539062 64.613281 -68.4375 62.84375 -68.5625 C 61.070312 -68.695312 59.867188 -68.054688 59.234375 -66.640625 C 58.535156 -65.085938 58.390625 -62.476562 58.796875 -58.8125 L 62.78125 -21.609375 L 63.21875 -21.40625 L 85.265625 -36.890625 C 89.441406 -39.828125 92.546875 -42.21875 94.578125 -44.0625 C 96.609375 -45.90625 97.941406 -47.53125 98.578125 -48.9375 C 99.210938 -50.351562 99.117188 -51.582031 98.296875 -52.625 C 97.472656 -53.664062 95.722656 -54.785156 93.046875 -55.984375 L 94.9375 -60.203125 L 120.40625 -48.75 L 118.515625 -44.53125 C 116.960938 -45.238281 115.46875 -45.640625 114.03125 -45.734375 C 112.601562 -45.835938 110.925781 -45.519531 109 -44.78125 C 107.070312 -44.050781 104.773438 -42.859375 102.109375 -41.203125 C 99.453125 -39.554688 96.109375 -37.316406 92.078125 -34.484375 L 61.96875 -13.296875 L 56.03125 -0.0625 C 54.394531 3.5625 53.210938 6.523438 52.484375 8.828125 C 51.765625 11.140625 51.5625 13.078125 51.875 14.640625 C 52.195312 16.210938 53.0625 17.5625 54.46875 18.6875 C 55.875 19.8125 57.910156 20.972656 60.578125 22.171875 L 58.6875 26.390625 L 22.671875 10.1875 L 24.5625 5.96875 C 27.226562 7.175781 29.453125 7.929688 31.234375 8.234375 C 33.015625 8.546875 34.585938 8.316406 35.953125 7.546875 C 37.328125 6.785156 38.628906 5.429688 39.859375 3.484375 C 41.085938 1.535156 42.46875 -1.140625 44 -4.546875 L 50.09375 -18.09375 Z M 44.96875 -66.109375 "/></g></g></g><g fill="#000000" fill-opacity="1"><g transform="translate(627.48846, 1178.72281)"><g><path d="M 71.015625 -85.546875 C 78.085938 -84.484375 84.488281 -82.25 90.21875 -78.84375 C 95.957031 -75.445312 100.753906 -71.242188 104.609375 -66.234375 C 108.472656 -61.222656 111.25 -55.59375 112.9375 -49.34375 C 114.632812 -43.101562 114.972656 -36.566406 113.953125 -29.734375 C 112.984375 -23.222656 110.769531 -17.304688 107.3125 -11.984375 C 103.851562 -6.671875 99.5625 -2.242188 94.4375 1.296875 C 89.3125 4.847656 83.507812 7.394531 77.03125 8.9375 C 70.5625 10.476562 63.832031 10.726562 56.84375 9.6875 C 49.851562 8.65625 43.484375 6.457031 37.734375 3.09375 C 31.992188 -0.269531 27.1875 -4.394531 23.3125 -9.28125 C 19.445312 -14.175781 16.628906 -19.664062 14.859375 -25.75 C 13.097656 -31.84375 12.703125 -38.144531 13.671875 -44.65625 C 14.691406 -51.488281 16.925781 -57.644531 20.375 -63.125 C 23.820312 -68.613281 28.113281 -73.191406 33.25 -76.859375 C 38.394531 -80.523438 44.207031 -83.148438 50.6875 -84.734375 C 57.164062 -86.328125 63.941406 -86.597656 71.015625 -85.546875 Z M 57.828125 3.0625 C 63.128906 3.851562 68.023438 3.640625 72.515625 2.421875 C 77.015625 1.203125 81.023438 -0.910156 84.546875 -3.921875 C 88.078125 -6.929688 91.015625 -10.785156 93.359375 -15.484375 C 95.703125 -20.179688 97.328125 -25.585938 98.234375 -31.703125 C 99.191406 -38.128906 99.253906 -44.050781 98.421875 -49.46875 C 97.585938 -54.894531 95.957031 -59.65625 93.53125 -63.75 C 91.101562 -67.851562 87.90625 -71.207031 83.9375 -73.8125 C 79.96875 -76.414062 75.332031 -78.113281 70.03125 -78.90625 C 64.726562 -79.6875 59.800781 -79.410156 55.25 -78.078125 C 50.695312 -76.742188 46.660156 -74.46875 43.140625 -71.25 C 39.628906 -68.039062 36.679688 -63.960938 34.296875 -59.015625 C 31.921875 -54.078125 30.253906 -48.394531 29.296875 -41.96875 C 28.390625 -35.851562 28.367188 -30.207031 29.234375 -25.03125 C 30.109375 -19.851562 31.773438 -15.3125 34.234375 -11.40625 C 36.691406 -7.507812 39.910156 -4.316406 43.890625 -1.828125 C 47.878906 0.648438 52.523438 2.28125 57.828125 3.0625 Z M 57.828125 3.0625 "/></g></g></g><g fill="#000000" fill-opacity="1"><g transform="translate(763.299839, 1195.029102)"><g><path d="M 51.765625 -6.46875 C 44.929688 -5.445312 38.625 -5.613281 32.84375 -6.96875 C 27.0625 -8.320312 21.945312 -10.703125 17.5 -14.109375 C 13.050781 -17.515625 9.375 -21.921875 6.46875 -27.328125 C 3.570312 -32.734375 1.601562 -38.929688 0.5625 -45.921875 C -0.519531 -53.234375 -0.382812 -60.066406 0.96875 -66.421875 C 2.320312 -72.785156 4.707031 -78.441406 8.125 -83.390625 C 11.539062 -88.335938 15.90625 -92.414062 21.21875 -95.625 C 26.53125 -98.832031 32.597656 -100.945312 39.421875 -101.96875 C 44.242188 -102.6875 48.882812 -102.675781 53.34375 -101.9375 C 57.8125 -101.207031 62.765625 -99.679688 68.203125 -97.359375 L 69.625 -105.234375 L 73.84375 -105.859375 L 76.390625 -77.890625 L 70.609375 -77.03125 C 70.023438 -80.96875 68.773438 -84.25 66.859375 -86.875 C 64.953125 -89.507812 62.65625 -91.570312 59.96875 -93.0625 C 57.28125 -94.550781 54.320312 -95.503906 51.09375 -95.921875 C 47.875 -96.347656 44.660156 -96.320312 41.453125 -95.84375 C 36.546875 -95.113281 32.304688 -93.5 28.734375 -91 C 25.160156 -88.5 22.316406 -85.242188 20.203125 -81.234375 C 18.085938 -77.234375 16.71875 -72.515625 16.09375 -67.078125 C 15.46875 -61.640625 15.644531 -55.625 16.625 -49.03125 C 18.539062 -36.101562 22.707031 -26.5625 29.125 -20.40625 C 35.539062 -14.25 43.851562 -11.929688 54.0625 -13.453125 C 57.914062 -14.023438 61.300781 -15 64.21875 -16.375 C 67.132812 -17.757812 69.539062 -19.394531 71.4375 -21.28125 C 73.332031 -23.164062 74.671875 -25.210938 75.453125 -27.421875 C 76.234375 -29.640625 76.457031 -31.867188 76.125 -34.109375 C 75.425781 -38.765625 74.007812 -41.773438 71.875 -43.140625 C 69.75 -44.515625 66.554688 -44.882812 62.296875 -44.25 L 61.625 -48.84375 L 95.84375 -53.9375 L 96.515625 -49.34375 C 94.597656 -49.050781 93.019531 -48.648438 91.78125 -48.140625 C 90.550781 -47.628906 89.613281 -46.894531 88.96875 -45.9375 C 88.332031 -44.976562 87.972656 -43.796875 87.890625 -42.390625 C 87.816406 -40.984375 87.929688 -39.234375 88.234375 -37.140625 L 90.25 -23.640625 C 88.726562 -23.410156 87.351562 -23.140625 86.125 -22.828125 C 84.894531 -22.523438 83.628906 -22.050781 82.328125 -21.40625 C 81.035156 -20.757812 79.617188 -19.929688 78.078125 -18.921875 C 76.546875 -17.921875 74.742188 -16.609375 72.671875 -14.984375 C 70.097656 -12.960938 67.054688 -11.195312 63.546875 -9.6875 C 60.035156 -8.1875 56.109375 -7.113281 51.765625 -6.46875 Z M 51.765625 -6.46875 "/></g></g></g><g fill="#000000" fill-opacity="1"><g transform="translate(887.624792, 1172.970565)"><g><path d="M 40.609375 -55.15625 L 10.859375 -42 C 10.953125 -38.382812 11.070312 -35.207031 11.21875 -32.46875 C 11.363281 -29.738281 11.535156 -27.394531 11.734375 -25.4375 C 11.929688 -23.488281 12.179688 -21.867188 12.484375 -20.578125 C 12.785156 -19.296875 13.097656 -18.285156 13.421875 -17.546875 C 14.347656 -15.460938 15.648438 -14.328125 17.328125 -14.140625 C 19.015625 -13.953125 21.421875 -14.546875 24.546875 -15.921875 L 26.421875 -11.6875 L -0.671875 0.296875 L -2.546875 -3.9375 C -0.929688 -4.925781 0.40625 -5.875 1.46875 -6.78125 C 2.53125 -7.695312 3.375 -8.691406 4 -9.765625 C 4.632812 -10.847656 5.066406 -12.082031 5.296875 -13.46875 C 5.523438 -14.863281 5.625 -16.488281 5.59375 -18.34375 L 2.46875 -103.71875 L 7.265625 -105.84375 L 60.390625 -54.171875 C 63.929688 -50.773438 66.882812 -48.109375 69.25 -46.171875 C 71.613281 -44.242188 73.671875 -42.910156 75.421875 -42.171875 C 77.171875 -41.429688 78.8125 -41.179688 80.34375 -41.421875 C 81.882812 -41.660156 83.625 -42.207031 85.5625 -43.0625 L 87.484375 -38.71875 L 51.15625 -22.640625 L 49.234375 -26.984375 C 53.171875 -28.722656 55.71875 -30.296875 56.875 -31.703125 C 58.039062 -33.109375 58.242188 -34.664062 57.484375 -36.375 C 57.148438 -37.125 56.804688 -37.789062 56.453125 -38.375 C 56.097656 -38.96875 55.660156 -39.59375 55.140625 -40.25 C 54.628906 -40.914062 54 -41.640625 53.25 -42.421875 C 52.507812 -43.203125 51.597656 -44.113281 50.515625 -45.15625 Z M 10.625 -48.546875 L 36.03125 -59.78125 L 9.109375 -87.203125 Z M 10.625 -48.546875 "/></g></g></g></svg>